<svg width="22" height="22" viewBox="0 0 22 22" fill="none" xmlns="http://www.w3.org/2000/svg">
<path fill-rule="evenodd" clip-rule="evenodd" d="M5.27247 16.7276C4.06332 15.5184 4.06332 13.5526 5.27247 12.3435L8.1009 9.51506L6.75739 8.17156L3.92897 11C1.97735 12.9516 1.97735 16.1194 3.92897 18.0711C5.88058 20.0227 9.04842 20.0227 11 18.0711L13.8285 15.2426L12.485 13.8991L9.65653 16.7276C8.44738 17.9367 6.48162 17.9367 5.27247 16.7276ZM8.87871 14.5355L14.5356 8.87867L13.1214 7.46445L7.4645 13.1213L8.87871 14.5355ZM11 3.92892L8.17161 6.75735L9.51511 8.10085L12.3435 5.27242C13.5527 4.06327 15.5184 4.06327 16.7276 5.27242C17.9368 6.48158 17.9368 8.44733 16.7276 9.65649L13.8992 12.4849L15.2427 13.8284L18.0711 11C20.0227 9.04837 20.0227 5.88054 18.0711 3.92892C16.1195 1.97731 12.9516 1.97731 11 3.92892Z" fill="rgba(0,0,0,0.3)"/>
</svg>
